<mxfile host="app.diagrams.net" modified="2022-09-29T03:23:40.727Z" agent="5.0 (Macintosh; Intel Mac OS X 10_15_7) AppleWebKit/537.36 (KHTML, like Gecko) Chrome/105.0.0.0 Safari/537.36" etag="fgNzdVpJn-X-nJEzmsxF" version="20.2.6" type="github">
  <diagram name="Page-1" id="e7e014a7-5840-1c2e-5031-d8a46d1fe8dd">
    <mxGraphModel dx="1426" dy="769" grid="1" gridSize="10" guides="1" tooltips="1" connect="1" arrows="1" fold="1" page="1" pageScale="1" pageWidth="1169" pageHeight="826" background="none" math="0" shadow="0">
      <root>
        <mxCell id="0" />
        <mxCell id="1" parent="0" />
        <mxCell id="2" value="前端" style="swimlane;whiteSpace=wrap" parent="1" vertex="1">
          <mxGeometry x="164.5" y="20" width="280" height="790" as="geometry" />
        </mxCell>
        <mxCell id="CFno1FlR8xtJHJYkCNm4-50" value="进入数据表格" style="rounded=1;whiteSpace=wrap;html=1;" vertex="1" parent="2">
          <mxGeometry x="60.5" y="62" width="120" height="60" as="geometry" />
        </mxCell>
        <mxCell id="CFno1FlR8xtJHJYkCNm4-70" style="edgeStyle=orthogonalEdgeStyle;rounded=0;orthogonalLoop=1;jettySize=auto;html=1;entryX=0.5;entryY=-0.067;entryDx=0;entryDy=0;entryPerimeter=0;" edge="1" parent="2" source="CFno1FlR8xtJHJYkCNm4-62" target="CFno1FlR8xtJHJYkCNm4-66">
          <mxGeometry relative="1" as="geometry" />
        </mxCell>
        <mxCell id="CFno1FlR8xtJHJYkCNm4-62" value="初始化" style="rounded=0;whiteSpace=wrap;html=1;" vertex="1" parent="2">
          <mxGeometry x="60.5" y="212" width="120" height="60" as="geometry" />
        </mxCell>
        <mxCell id="CFno1FlR8xtJHJYkCNm4-94" style="edgeStyle=orthogonalEdgeStyle;rounded=0;orthogonalLoop=1;jettySize=auto;html=1;" edge="1" parent="2" source="CFno1FlR8xtJHJYkCNm4-66">
          <mxGeometry relative="1" as="geometry">
            <mxPoint x="120.5" y="612" as="targetPoint" />
          </mxGeometry>
        </mxCell>
        <mxCell id="CFno1FlR8xtJHJYkCNm4-66" value="获取第一个sheet的数据" style="rounded=0;whiteSpace=wrap;html=1;" vertex="1" parent="2">
          <mxGeometry x="60.5" y="345" width="120" height="60" as="geometry" />
        </mxCell>
        <mxCell id="CFno1FlR8xtJHJYkCNm4-81" value="" style="shape=flexArrow;endArrow=classic;html=1;rounded=0;" edge="1" parent="2">
          <mxGeometry width="50" height="50" relative="1" as="geometry">
            <mxPoint x="415.5" y="432" as="sourcePoint" />
            <mxPoint x="125.5" y="432" as="targetPoint" />
          </mxGeometry>
        </mxCell>
        <mxCell id="CFno1FlR8xtJHJYkCNm4-89" value="" style="shape=flexArrow;endArrow=classic;html=1;rounded=0;" edge="1" parent="2">
          <mxGeometry width="50" height="50" relative="1" as="geometry">
            <mxPoint x="415.5" y="482" as="sourcePoint" />
            <mxPoint x="125.5" y="482" as="targetPoint" />
          </mxGeometry>
        </mxCell>
        <mxCell id="CFno1FlR8xtJHJYkCNm4-90" value="" style="shape=flexArrow;endArrow=classic;html=1;rounded=0;" edge="1" parent="2">
          <mxGeometry width="50" height="50" relative="1" as="geometry">
            <mxPoint x="415.5" y="530" as="sourcePoint" />
            <mxPoint x="125.5" y="530" as="targetPoint" />
          </mxGeometry>
        </mxCell>
        <mxCell id="CFno1FlR8xtJHJYkCNm4-104" value="显示完整数据" style="rounded=1;whiteSpace=wrap;html=1;" vertex="1" parent="2">
          <mxGeometry x="60.5" y="610" width="120" height="60" as="geometry" />
        </mxCell>
        <mxCell id="CFno1FlR8xtJHJYkCNm4-109" value="过滤" style="rounded=1;whiteSpace=wrap;html=1;" vertex="1" parent="2">
          <mxGeometry x="60.5" y="700" width="120" height="60" as="geometry" />
        </mxCell>
        <mxCell id="3" value="服务端HTTP" style="swimlane;whiteSpace=wrap" parent="1" vertex="1">
          <mxGeometry x="446.5" y="20" width="280" height="790" as="geometry" />
        </mxCell>
        <mxCell id="CFno1FlR8xtJHJYkCNm4-49" value="pre" style="rounded=0;whiteSpace=wrap;html=1;" vertex="1" parent="3">
          <mxGeometry x="78.5" y="62" width="120" height="60" as="geometry" />
        </mxCell>
        <mxCell id="CFno1FlR8xtJHJYkCNm4-84" value="init: 返回列信息" style="text;html=1;align=center;verticalAlign=middle;resizable=0;points=[];autosize=1;strokeColor=none;fillColor=none;" vertex="1" parent="3">
          <mxGeometry x="-56.5" y="402" width="110" height="30" as="geometry" />
        </mxCell>
        <mxCell id="CFno1FlR8xtJHJYkCNm4-92" value="message: 数据" style="text;html=1;align=center;verticalAlign=middle;resizable=0;points=[];autosize=1;strokeColor=none;fillColor=none;" vertex="1" parent="3">
          <mxGeometry x="-46.5" y="457" width="100" height="30" as="geometry" />
        </mxCell>
        <mxCell id="CFno1FlR8xtJHJYkCNm4-97" value="finish: 结束推送" style="text;html=1;align=center;verticalAlign=middle;resizable=0;points=[];autosize=1;strokeColor=none;fillColor=none;" vertex="1" parent="3">
          <mxGeometry x="-51.5" y="502" width="110" height="30" as="geometry" />
        </mxCell>
        <mxCell id="CFno1FlR8xtJHJYkCNm4-100" value="SSE推送" style="html=1;whiteSpace=wrap;shape=isoCube2;backgroundOutline=1;isoAngle=15;" vertex="1" parent="3">
          <mxGeometry x="133.5" y="320" width="60" height="261" as="geometry" />
        </mxCell>
        <mxCell id="4" value="服务端WS" style="swimlane;whiteSpace=wrap" parent="1" vertex="1">
          <mxGeometry x="726.5" y="20" width="280" height="790" as="geometry" />
        </mxCell>
        <mxCell id="CFno1FlR8xtJHJYkCNm4-111" style="edgeStyle=orthogonalEdgeStyle;rounded=0;orthogonalLoop=1;jettySize=auto;html=1;entryX=0.5;entryY=0;entryDx=0;entryDy=0;entryPerimeter=0;" edge="1" parent="4" source="CFno1FlR8xtJHJYkCNm4-106" target="CFno1FlR8xtJHJYkCNm4-107">
          <mxGeometry relative="1" as="geometry" />
        </mxCell>
        <mxCell id="CFno1FlR8xtJHJYkCNm4-106" value="过滤" style="rounded=0;whiteSpace=wrap;html=1;" vertex="1" parent="4">
          <mxGeometry x="83.5" y="345" width="120" height="60" as="geometry" />
        </mxCell>
        <mxCell id="CFno1FlR8xtJHJYkCNm4-107" value="返回满足条件的sheet和text_id" style="rounded=0;whiteSpace=wrap;html=1;" vertex="1" parent="4">
          <mxGeometry x="83.5" y="460" width="120" height="60" as="geometry" />
        </mxCell>
        <mxCell id="CFno1FlR8xtJHJYkCNm4-51" style="edgeStyle=orthogonalEdgeStyle;rounded=0;orthogonalLoop=1;jettySize=auto;html=1;entryX=0.008;entryY=0.5;entryDx=0;entryDy=0;entryPerimeter=0;" edge="1" parent="1" target="CFno1FlR8xtJHJYkCNm4-49">
          <mxGeometry relative="1" as="geometry">
            <mxPoint x="350" y="112" as="sourcePoint" />
          </mxGeometry>
        </mxCell>
        <mxCell id="CFno1FlR8xtJHJYkCNm4-55" value="返回sheet集合" style="text;html=1;align=center;verticalAlign=middle;resizable=0;points=[];autosize=1;strokeColor=none;fillColor=none;" vertex="1" parent="1">
          <mxGeometry x="440" y="247" width="100" height="30" as="geometry" />
        </mxCell>
        <mxCell id="CFno1FlR8xtJHJYkCNm4-65" style="edgeStyle=orthogonalEdgeStyle;rounded=0;orthogonalLoop=1;jettySize=auto;html=1;entryX=1.008;entryY=0.55;entryDx=0;entryDy=0;entryPerimeter=0;exitX=0.5;exitY=1.017;exitDx=0;exitDy=0;exitPerimeter=0;" edge="1" parent="1" source="CFno1FlR8xtJHJYkCNm4-49" target="CFno1FlR8xtJHJYkCNm4-62">
          <mxGeometry relative="1" as="geometry">
            <Array as="points">
              <mxPoint x="585" y="265" />
            </Array>
          </mxGeometry>
        </mxCell>
        <mxCell id="CFno1FlR8xtJHJYkCNm4-102" style="edgeStyle=orthogonalEdgeStyle;rounded=0;orthogonalLoop=1;jettySize=auto;html=1;entryX=-0.05;entryY=0.207;entryDx=0;entryDy=0;entryPerimeter=0;" edge="1" parent="1" target="CFno1FlR8xtJHJYkCNm4-100">
          <mxGeometry relative="1" as="geometry">
            <mxPoint x="410" y="395" as="targetPoint" />
            <mxPoint x="350" y="394" as="sourcePoint" />
          </mxGeometry>
        </mxCell>
        <mxCell id="CFno1FlR8xtJHJYkCNm4-110" style="edgeStyle=orthogonalEdgeStyle;rounded=0;orthogonalLoop=1;jettySize=auto;html=1;entryX=0;entryY=0.533;entryDx=0;entryDy=0;entryPerimeter=0;" edge="1" parent="1" target="CFno1FlR8xtJHJYkCNm4-106">
          <mxGeometry relative="1" as="geometry">
            <mxPoint x="350" y="750" as="sourcePoint" />
            <Array as="points">
              <mxPoint x="770" y="750" />
              <mxPoint x="770" y="397" />
            </Array>
          </mxGeometry>
        </mxCell>
        <mxCell id="CFno1FlR8xtJHJYkCNm4-112" style="edgeStyle=orthogonalEdgeStyle;rounded=0;orthogonalLoop=1;jettySize=auto;html=1;entryX=0.542;entryY=1;entryDx=0;entryDy=0;entryPerimeter=0;" edge="1" parent="1" target="CFno1FlR8xtJHJYkCNm4-109">
          <mxGeometry relative="1" as="geometry">
            <mxPoint x="290" y="800" as="targetPoint" />
            <mxPoint x="870" y="540" as="sourcePoint" />
            <Array as="points">
              <mxPoint x="870" y="800" />
              <mxPoint x="290" y="800" />
            </Array>
          </mxGeometry>
        </mxCell>
      </root>
    </mxGraphModel>
  </diagram>
</mxfile>
